<svg width="1427" height="503" viewBox="0 0 1427 503" fill="none" xmlns="http://www.w3.org/2000/svg">
<path d="M0.5 1H330.5V76H437.5" stroke="white" stroke-width="0.5" stroke-dasharray="8 8"/>
<path d="M0.5 1H330.5V76H437.5" stroke="white" stroke-width="0.5" stroke-dasharray="8 8"/>
<path d="M1427 175L1144.5 175V311.5H936" stroke="white" stroke-width="0.5" stroke-dasharray="8 8"/>
<path d="M1427 175L1144.5 175V311.5H936" stroke="white" stroke-width="0.5" stroke-dasharray="8 8"/>
<path d="M1340 12.5H1119.5V65.5H997.5M80 190H279V303H482M182.5 502H362.5V427H600V378M803 262.5V170.5H1094" stroke="white" stroke-width="0.5" stroke-dasharray="8 8"/>
<path d="M1340 12.5H1119.5V65.5H997.5M80 190H279V303H482M182.5 502H362.5V427H600V378M803 262.5V170.5H1094" stroke="white" stroke-width="0.5" stroke-dasharray="8 8"/>
</svg>
