<svg width="209" height="59" viewBox="0 0 209 59" fill="none" xmlns="http://www.w3.org/2000/svg">
<line y1="-1" x2="30.5687" y2="-1" transform="matrix(-0.316228 0.948683 -0.973775 -0.227513 52.3611 0)" stroke="#7B7B7B" stroke-width="2"/>
<line y1="-1" x2="30.5687" y2="-1" transform="matrix(-0.316228 0.948683 -0.973775 -0.227513 9.66663 29)" stroke="#7B7B7B" stroke-width="2"/>
<line y1="-1" x2="30.5687" y2="-1" transform="matrix(-0.316228 0.948683 -0.973775 -0.227513 62.0278 0)" stroke="#7B7B7B" stroke-width="2"/>
<line y1="-1" x2="30.5687" y2="-1" transform="matrix(-0.316228 0.948683 -0.973775 -0.227513 19.3333 29)" stroke="#7B7B7B" stroke-width="2"/>
<line y1="-1" x2="30.5687" y2="-1" transform="matrix(-0.316228 0.948683 -0.973775 -0.227513 71.6945 0)" stroke="#7B7B7B" stroke-width="2"/>
<line y1="-1" x2="30.5687" y2="-1" transform="matrix(-0.316228 0.948683 -0.973775 -0.227513 29 29)" stroke="#7B7B7B" stroke-width="2"/>
<line y1="-1" x2="30.5687" y2="-1" transform="matrix(-0.316228 0.948683 -0.973775 -0.227513 81.3611 0)" stroke="#7B7B7B" stroke-width="2"/>
<line y1="-1" x2="30.5687" y2="-1" transform="matrix(-0.316228 0.948683 -0.973775 -0.227513 38.6666 29)" stroke="#7B7B7B" stroke-width="2"/>
<line y1="-1" x2="30.5687" y2="-1" transform="matrix(-0.316228 0.948683 -0.973775 -0.227513 91.0278 0)" stroke="#7B7B7B" stroke-width="2"/>
<line y1="-1" x2="30.5687" y2="-1" transform="matrix(-0.316228 0.948683 -0.973775 -0.227513 48.3333 29)" stroke="#7B7B7B" stroke-width="2"/>
<line y1="-1" x2="30.5687" y2="-1" transform="matrix(-0.316228 0.948683 -0.973775 -0.227513 100.694 0)" stroke="#7B7B7B" stroke-width="2"/>
<line y1="-1" x2="30.5687" y2="-1" transform="matrix(-0.316228 0.948683 -0.973775 -0.227513 58 29)" stroke="#7B7B7B" stroke-width="2"/>
<line y1="-1" x2="30.5687" y2="-1" transform="matrix(-0.316228 0.948683 -0.973775 -0.227513 110.361 0)" stroke="#7B7B7B" stroke-width="2"/>
<line y1="-1" x2="30.5687" y2="-1" transform="matrix(-0.316228 0.948683 -0.973775 -0.227513 67.6666 29)" stroke="#7B7B7B" stroke-width="2"/>
<line y1="-1" x2="30.5687" y2="-1" transform="matrix(-0.316228 0.948683 -0.973775 -0.227513 120.028 0)" stroke="#7B7B7B" stroke-width="2"/>
<line y1="-1" x2="30.5687" y2="-1" transform="matrix(-0.316228 0.948683 -0.973775 -0.227513 77.3333 29)" stroke="#7B7B7B" stroke-width="2"/>
<line y1="-1" x2="30.5687" y2="-1" transform="matrix(-0.316228 0.948683 -0.973775 -0.227513 129.694 0)" stroke="#7B7B7B" stroke-width="2"/>
<line y1="-1" x2="30.5687" y2="-1" transform="matrix(-0.316228 0.948683 -0.973775 -0.227513 87 29)" stroke="#7B7B7B" stroke-width="2"/>
<line y1="-1" x2="30.5687" y2="-1" transform="matrix(-0.316228 0.948683 -0.973775 -0.227513 139.361 0)" stroke="#7B7B7B" stroke-width="2"/>
<line y1="-1" x2="30.5687" y2="-1" transform="matrix(-0.316228 0.948683 -0.973775 -0.227513 96.6667 29)" stroke="#7B7B7B" stroke-width="2"/>
<line y1="-1" x2="30.5687" y2="-1" transform="matrix(-0.316228 0.948683 -0.973775 -0.227513 149.028 0)" stroke="#7B7B7B" stroke-width="2"/>
<line y1="-1" x2="30.5687" y2="-1" transform="matrix(-0.316228 0.948683 -0.973775 -0.227513 106.333 29)" stroke="#7B7B7B" stroke-width="2"/>
<line y1="-1" x2="30.5687" y2="-1" transform="matrix(-0.316228 0.948683 -0.973775 -0.227513 158.694 0)" stroke="#7B7B7B" stroke-width="2"/>
<line y1="-1" x2="30.5687" y2="-1" transform="matrix(-0.316228 0.948683 -0.973775 -0.227513 116 29)" stroke="#7B7B7B" stroke-width="2"/>
<line y1="-1" x2="30.5687" y2="-1" transform="matrix(-0.316228 0.948683 -0.973775 -0.227513 168.361 0)" stroke="#7B7B7B" stroke-width="2"/>
<line y1="-1" x2="30.5687" y2="-1" transform="matrix(-0.316228 0.948683 -0.973775 -0.227513 125.667 29)" stroke="#7B7B7B" stroke-width="2"/>
<line y1="-1" x2="30.5687" y2="-1" transform="matrix(-0.316228 0.948683 -0.973775 -0.227513 178.028 0)" stroke="#7B7B7B" stroke-width="2"/>
<line y1="-1" x2="30.5687" y2="-1" transform="matrix(-0.316228 0.948683 -0.973775 -0.227513 135.333 29)" stroke="#7B7B7B" stroke-width="2"/>
<line y1="-1" x2="30.5687" y2="-1" transform="matrix(-0.316228 0.948683 -0.973775 -0.227513 187.694 0)" stroke="#7B7B7B" stroke-width="2"/>
<line y1="-1" x2="30.5687" y2="-1" transform="matrix(-0.316228 0.948683 -0.973775 -0.227513 145 29)" stroke="#7B7B7B" stroke-width="2"/>
<line y1="-1" x2="30.5687" y2="-1" transform="matrix(-0.316228 0.948683 -0.973775 -0.227513 197.361 0)" stroke="#7B7B7B" stroke-width="2"/>
<line y1="-1" x2="30.5687" y2="-1" transform="matrix(-0.316228 0.948683 -0.973775 -0.227513 154.667 29)" stroke="#7B7B7B" stroke-width="2"/>
<line y1="-1" x2="30.5687" y2="-1" transform="matrix(-0.316228 0.948683 -0.973775 -0.227513 207.028 0)" stroke="#7B7B7B" stroke-width="2"/>
<line y1="-1" x2="30.5687" y2="-1" transform="matrix(-0.316228 0.948683 -0.973775 -0.227513 164.333 29)" stroke="#7B7B7B" stroke-width="2"/>
</svg>
