<svg width="198" height="198" viewBox="0 0 198 198" fill="none" xmlns="http://www.w3.org/2000/svg">
<rect width="198" height="198" rx="25" fill="#FFDA00"/>
<path d="M3.92893 179.187C0.0236895 183.093 0.0236895 189.424 3.92893 193.329C7.83418 197.235 14.1658 197.235 18.0711 193.329L3.92893 179.187ZM136.258 71C136.258 65.4772 131.781 61 126.258 61H36.2584C30.7356 61 26.2584 65.4772 26.2584 71C26.2584 76.5229 30.7356 81 36.2584 81H116.258V161C116.258 166.523 120.736 171 126.258 171C131.781 171 136.258 166.523 136.258 161V71ZM18.0711 193.329L133.329 78.0711L119.187 63.9289L3.92893 179.187L18.0711 193.329Z" fill="#1E1E1E"/>
</svg>
